<?xml version="1.0" standalone="no"?>
<!DOCTYPE svg PUBLIC "-//W3C//DTD SVG 20010904//EN"
 "http://www.w3.org/TR/2001/REC-SVG-20010904/DTD/svg10.dtd">
<svg version="1.0" xmlns="http://www.w3.org/2000/svg"
 width="1024.000000pt" height="1024.000000pt" viewBox="0 0 1024.000000 1024.000000"
 preserveAspectRatio="xMidYMid meet">

<g transform="translate(0.000000,1024.000000) scale(0.100000,-0.100000)"
fill="#000000" stroke="none">
<path d="M4940 7860 c-560 -44 -1109 -261 -1560 -619 -116 -92 -321 -296 -414
-411 -337 -421 -539 -923 -606 -1512 -18 -155 -8 -508 19 -660 74 -422 195
-748 396 -1073 354 -572 843 -965 1463 -1176 710 -242 1481 -182 2166 168 234
120 427 263 632 467 292 292 480 569 638 940 87 202 174 539 208 796 17 136
14 459 -6 608 -72 541 -277 1036 -592 1432 -172 215 -457 469 -700 622 -491
308 -1090 461 -1644 418z m540 -284 c315 -51 645 -172 920 -338 317 -191 607
-471 813 -783 192 -291 364 -793 394 -1147 l9 -98 -121 0 -122 0 -12 108 c-49
453 -252 917 -554 1268 -208 242 -432 418 -707 558 -316 161 -607 229 -980
229 -233 0 -372 -18 -590 -78 -590 -163 -1088 -575 -1394 -1155 -141 -267
-256 -659 -256 -871 l0 -59 -126 0 -126 0 7 73 c20 224 73 467 142 652 252
676 762 1208 1429 1485 183 76 398 132 634 165 130 19 500 13 640 -9z m10
-471 c233 -49 473 -146 653 -264 61 -40 77 -56 77 -75 0 -69 -82 -76 -185 -15
-185 109 -461 206 -680 240 -106 16 -371 16 -465 0 -232 -40 -547 -153 -702
-253 -40 -25 -55 -29 -86 -25 -69 11 -89 68 -38 110 37 30 307 163 406 200 52
19 142 47 200 61 191 47 268 56 490 52 174 -4 224 -8 330 -31z m-889 -559
c232 -54 437 -173 613 -356 184 -192 288 -399 338 -670 97 -531 -135 -1038
-565 -1235 -124 -57 -118 -57 -247 37 -62 46 -115 88 -116 93 -2 6 32 27 76
47 195 93 340 283 407 534 23 87 26 119 27 259 0 135 -3 173 -21 240 -80 292
-227 477 -458 580 -75 33 -197 65 -247 65 l-38 0 0 -1080 c0 -995 1 -1081 17
-1087 9 -3 169 -2 357 4 324 10 345 12 429 37 167 50 287 125 408 254 163 174
273 431 299 697 5 55 10 439 10 853 l0 752 240 0 240 0 88 -79 c48 -43 107
-100 132 -127 187 -202 349 -471 429 -712 30 -92 74 -287 87 -389 l7 -53 -66
0 -65 0 -12 73 c-38 231 -112 442 -225 642 -81 144 -137 218 -259 343 -102
104 -112 112 -148 112 l-38 0 0 -667 c-1 -368 -5 -726 -10 -798 -36 -528 -316
-965 -757 -1184 -88 -44 -201 -81 -324 -108 -76 -16 -142 -18 -664 -18 l-580
0 -3 1388 -2 1387 -46 0 c-45 0 -48 -2 -143 -98 -125 -127 -214 -253 -304
-432 -85 -168 -150 -356 -181 -520 l-22 -115 -62 -3 -62 -3 0 44 c0 132 97
453 195 647 47 93 134 230 208 328 78 104 228 261 297 311 l45 33 325 -5 c241
-4 342 -9 391 -21z m-992 -1370 c57 -30 70 -124 24 -168 -49 -47 -108 -45
-160 4 -88 82 26 220 136 164z m3157 -20 c44 -44 47 -99 8 -145 -66 -79 -194
-27 -194 80 0 22 10 41 34 65 28 28 42 34 76 34 34 0 48 -6 76 -34z m-3883
-303 c17 -286 128 -671 268 -933 113 -210 313 -464 485 -616 277 -244 571
-400 922 -488 230 -58 340 -69 617 -63 252 6 300 12 535 72 371 94 752 320
1025 607 101 106 236 280 298 384 164 274 298 672 327 972 18 181 2 162 135
162 l115 0 0 -42 c0 -119 -39 -346 -91 -531 -196 -698 -682 -1290 -1313 -1597
-231 -113 -467 -188 -706 -225 -144 -23 -469 -31 -628 -15 -705 67 -1340 444
-1782 1055 -251 349 -416 812 -455 1278 l-7 77 125 0 124 0 6 -97z m387 50 c0
-53 22 -201 45 -306 44 -197 160 -464 282 -647 202 -304 409 -488 737 -652
330 -167 760 -220 1144 -143 120 25 336 101 457 161 274 137 506 337 696 600
170 236 298 573 338 894 l17 135 62 3 62 3 0 -40 c0 -73 -29 -265 -60 -389
-72 -295 -216 -585 -402 -807 -245 -295 -520 -489 -870 -616 -241 -87 -561
-131 -803 -109 -343 30 -577 104 -853 268 -271 162 -505 392 -674 664 -175
282 -308 697 -308 963 l0 65 65 0 65 0 0 -47z"/>
</g>
</svg>
